# This file uses centimeters as units for non-parametric coordinates.

mtllib Platform13.mtl
g default
v 47.586043 -1.601243 0.031451
v 50.788529 -1.601243 0.031451
v 47.586043 1.601243 0.031451
v 50.788529 1.601243 0.031451
v 47.586043 1.601243 -3.817465
v 50.788529 1.601243 -3.817465
v 47.586043 -1.601243 -3.817465
v 50.788529 -1.601243 -3.817465
v 47.586043 1.129357 0.031451
v 47.586043 1.129357 -3.817465
v 50.788529 1.129357 -3.817465
v 50.788529 1.129357 0.031451
v 47.087331 1.265100 0.031451
v 47.087331 1.265100 -3.817465
v 47.087331 1.465500 0.031451
v 47.087331 1.465500 -3.817465
v 51.201468 1.300699 -3.772050
v 51.201468 1.300699 -0.013965
v 51.201468 1.429902 -3.772050
v 51.201468 1.429902 -0.013965
v 47.586043 -1.407268 0.031451
v 47.586043 -1.407268 -3.817465
v 50.788529 -1.407268 -3.817465
v 50.788529 -1.407268 0.031451
v 47.586043 0.939576 0.031451
v 47.586043 0.939576 -3.817465
v 50.788529 0.939576 -3.817465
v 50.788529 0.939576 0.031451
v 47.704292 1.601243 0.031451
v 47.704292 1.601243 -3.817465
v 47.704292 1.129357 -3.817465
v 47.704292 0.939576 -3.817465
v 47.704292 -1.407268 -3.817465
v 47.704292 -1.601243 -3.817465
v 47.704292 -1.601243 0.031451
v 47.704292 -1.407268 0.031451
v 47.704292 0.939576 0.031451
v 47.704292 1.129357 0.031451
v 50.601275 1.601243 0.031451
v 50.601275 1.601243 -3.817465
v 50.601275 1.129357 -3.817465
v 50.601275 0.939576 -3.817465
v 50.601275 -1.407268 -3.817465
v 50.601275 -1.601243 -3.817465
v 50.601275 -1.601243 0.031451
v 50.601275 -1.407268 0.031451
v 50.601275 0.939576 0.031451
v 50.601275 1.129357 0.031451
v 47.586043 1.503070 0.031451
v 47.087331 1.423808 0.031451
v 47.087331 1.423808 -3.817465
v 47.586043 1.503070 -3.817465
v 47.704292 1.503070 -3.817465
v 50.601275 1.503070 -3.817465
v 50.788529 1.503070 -3.817465
v 51.201468 1.403022 -3.772050
v 51.201468 1.403022 -0.013965
v 50.788529 1.503070 0.031451
v 50.601275 1.503070 0.031451
v 47.704292 1.503070 0.031451
v 47.586043 1.219027 0.031451
v 47.087331 1.303181 0.031451
v 47.087331 1.303181 -3.817465
v 47.586043 1.219027 -3.817465
v 47.704292 1.219027 -3.817465
v 50.601275 1.219027 -3.817465
v 50.788529 1.219027 -3.817465
v 51.201468 1.325250 -3.772050
v 51.201468 1.325250 -0.013965
v 50.788529 1.219027 0.031451
v 50.601275 1.219027 0.031451
v 47.704292 1.219027 0.031451
v 50.788529 0.939576 -0.147443
v 50.788529 -1.407268 -0.147443
v 50.788529 -1.601243 -0.147443
v 50.601275 -1.601243 -0.147443
v 47.704292 -1.601243 -0.147443
v 47.586043 -1.601243 -0.147443
v 47.586043 -1.407268 -0.147443
v 47.586043 0.939576 -0.147443
v 47.586043 1.129357 -0.147443
v 47.087331 1.265100 -0.147443
v 47.087331 1.303181 -0.147443
v 47.087331 1.423808 -0.147443
v 47.087331 1.465500 -0.147443
v 47.586043 1.601243 -0.147443
v 47.704292 1.601243 -0.147443
v 50.601275 1.601243 -0.147443
v 50.788529 1.601243 -0.147443
v 51.201468 1.429902 -0.188637
v 51.201468 1.403022 -0.188637
v 51.201468 1.325250 -0.188637
v 51.201468 1.300699 -0.188637
v 50.788529 1.129357 -0.147443
v 50.788529 0.939576 -3.590736
v 50.788529 -1.407268 -3.590736
v 50.788529 -1.601243 -3.590736
v 50.601275 -1.601243 -3.590736
v 47.704292 -1.601243 -3.590736
v 47.586043 -1.601243 -3.590736
v 47.586043 -1.407268 -3.590736
v 47.586043 0.939576 -3.590736
v 47.586043 1.129357 -3.590736
v 47.087331 1.265100 -3.590736
v 47.087331 1.303181 -3.590736
v 47.087331 1.423808 -3.590736
v 47.087331 1.465500 -3.590736
v 47.586043 1.601243 -3.590736
v 47.704292 1.601243 -3.590736
v 50.601275 1.601243 -3.590736
v 50.788529 1.601243 -3.590736
v 51.201468 1.429902 -3.550671
v 51.201468 1.403022 -3.550671
v 51.201468 1.325250 -3.550671
v 51.201468 1.300699 -3.550671
v 50.788529 1.129357 -3.590736
vt 0.375000 0.000000
vt 0.625000 0.000000
vt 0.375000 0.250000
vt 0.625000 0.250000
vt 0.375000 0.500000
vt 0.625000 0.500000
vt 0.375000 0.750000
vt 0.625000 0.750000
vt 0.375000 1.000000
vt 0.625000 1.000000
vt 0.875000 0.000000
vt 0.875000 0.250000
vt 0.125000 0.000000
vt 0.125000 0.250000
vt 0.375000 0.213163
vt 0.125000 0.213163
vt 0.375000 0.536837
vt 0.625000 0.536837
vt 0.875000 0.213163
vt 0.625000 0.213163
vt 0.125000 0.213163
vt 0.375000 0.213163
vt 0.375000 0.250000
vt 0.125000 0.250000
vt 0.625000 0.213163
vt 0.875000 0.213163
vt 0.875000 0.250000
vt 0.625000 0.250000
vt 0.375000 0.015143
vt 0.125000 0.015143
vt 0.375000 0.734857
vt 0.625000 0.734857
vt 0.875000 0.015143
vt 0.625000 0.015143
vt 0.375000 0.198347
vt 0.125000 0.198347
vt 0.375000 0.551653
vt 0.625000 0.551653
vt 0.875000 0.198347
vt 0.625000 0.198347
vt 0.384231 0.250000
vt 0.384231 0.500000
vt 0.384231 0.536837
vt 0.384231 0.551653
vt 0.384231 0.734857
vt 0.384231 0.750000
vt 0.384231 0.000000
vt 0.384231 1.000000
vt 0.384231 0.015143
vt 0.384231 0.198347
vt 0.384231 0.213163
vt 0.610382 0.250000
vt 0.610382 0.500000
vt 0.610382 0.536837
vt 0.610382 0.551653
vt 0.610382 0.734857
vt 0.610382 0.750000
vt 0.610382 0.000000
vt 0.610382 1.000000
vt 0.610382 0.015143
vt 0.610382 0.198347
vt 0.610382 0.213163
vt 0.375000 0.242336
vt 0.375000 0.242336
vt 0.125000 0.242336
vt 0.125000 0.242336
vt 0.375000 0.507664
vt 0.384231 0.507664
vt 0.610382 0.507664
vt 0.625000 0.507664
vt 0.875000 0.242336
vt 0.875000 0.242336
vt 0.625000 0.242336
vt 0.625000 0.242336
vt 0.610382 0.242336
vt 0.384231 0.242336
vt 0.375000 0.220163
vt 0.375000 0.220163
vt 0.125000 0.220163
vt 0.125000 0.220163
vt 0.375000 0.529837
vt 0.384231 0.529837
vt 0.610382 0.529837
vt 0.625000 0.529837
vt 0.875000 0.220163
vt 0.875000 0.220163
vt 0.625000 0.220163
vt 0.625000 0.220163
vt 0.610382 0.220163
vt 0.384231 0.220163
vt 0.636620 0.198347
vt 0.636620 0.015143
vt 0.625000 0.988380
vt 0.636620 0.000000
vt 0.610382 0.988380
vt 0.384231 0.988380
vt 0.363380 0.000000
vt 0.375000 0.988380
vt 0.363380 0.015143
vt 0.363380 0.198347
vt 0.363380 0.213163
vt 0.363380 0.213163
vt 0.363380 0.220163
vt 0.363380 0.242336
vt 0.363380 0.250000
vt 0.363380 0.250000
vt 0.375000 0.261620
vt 0.384231 0.261620
vt 0.610382 0.261620
vt 0.625000 0.261620
vt 0.636620 0.250000
vt 0.636620 0.250000
vt 0.636620 0.242336
vt 0.636620 0.220163
vt 0.636620 0.213163
vt 0.636620 0.213163
vt 0.860273 0.198347
vt 0.860273 0.015143
vt 0.625000 0.764727
vt 0.860273 0.000000
vt 0.610382 0.764727
vt 0.384231 0.764727
vt 0.139727 0.000000
vt 0.375000 0.764727
vt 0.139727 0.015143
vt 0.139727 0.198347
vt 0.139727 0.213163
vt 0.139727 0.213163
vt 0.139727 0.220163
vt 0.139727 0.242336
vt 0.139727 0.250000
vt 0.139727 0.250000
vt 0.375000 0.485273
vt 0.384231 0.485273
vt 0.610382 0.485273
vt 0.625000 0.485273
vt 0.860273 0.250000
vt 0.860273 0.250000
vt 0.860273 0.242336
vt 0.860273 0.220163
vt 0.860273 0.213163
vt 0.860273 0.213163
vn 0.000000 0.000000 1.000000
vn 0.000000 0.000000 1.000000
vn 0.000000 0.000000 1.000000
vn 0.000000 0.000000 1.000000
vn -0.214879 0.976641 0.000000
vn 0.000000 1.000000 0.000000
vn 0.000000 1.000000 0.000000
vn -0.214879 0.976641 0.000000
vn 0.000000 0.000000 -1.000000
vn 0.000000 0.000000 -1.000000
vn 0.000000 0.000000 -1.000000
vn 0.000000 0.000000 -1.000000
vn 0.000000 -1.000000 0.000000
vn 0.000000 -1.000000 0.000000
vn 0.000000 -1.000000 0.000000
vn 0.000000 -1.000000 0.000000
vn 1.000000 0.000000 0.000000
vn 1.000000 0.000000 0.000000
vn 1.000000 0.000000 0.000000
vn 1.000000 0.000000 0.000000
vn -1.000000 0.000000 0.000000
vn -1.000000 0.000000 0.000000
vn -1.000000 0.000000 0.000000
vn -1.000000 0.000000 0.000000
vn -1.000000 0.000000 0.000000
vn -1.000000 0.000000 0.000000
vn -1.000000 0.000000 0.000000
vn -1.000000 0.000000 0.000000
vn 0.000000 0.000000 -1.000000
vn 0.000000 0.000000 -1.000000
vn 0.000000 0.000000 -1.000000
vn 0.000000 0.000000 -1.000000
vn 1.000000 0.000000 0.000000
vn 1.000000 0.000000 0.000000
vn 1.000000 0.000000 0.000000
vn 1.000000 0.000000 0.000000
vn 0.000000 0.000000 1.000000
vn 0.000000 0.000000 1.000000
vn 0.000000 0.000000 1.000000
vn 0.000000 0.000000 1.000000
vn -0.262632 -0.964896 0.000000
vn -0.262632 -0.964896 0.000000
vn -0.262632 -0.964896 0.000000
vn -0.262632 -0.964896 0.000000
vn 0.000000 0.000000 1.000000
vn 0.000000 0.000000 1.000000
vn -0.262632 0.964896 0.000000
vn -0.262632 0.964896 0.000000
vn 0.000000 0.000000 -1.000000
vn 0.000000 0.000000 -1.000000
vn 0.383249 -0.923645 0.000000
vn 0.383249 -0.923645 0.000000
vn 0.383249 -0.923645 0.000000
vn 0.383249 -0.923645 0.000000
vn 0.027788 0.000000 -0.999614
vn 0.061791 0.000000 -0.998089
vn 0.109321 0.000000 -0.994007
vn 0.109320 0.000000 -0.994007
vn 0.269122 0.963106 0.000000
vn 0.270160 0.962815 0.000000
vn 0.383249 0.923645 0.000000
vn 0.383249 0.923645 0.000000
vn 0.061791 0.000000 0.998089
vn 0.027788 0.000000 0.999614
vn 0.109320 0.000000 0.994007
vn 0.109321 0.000000 0.994007
vn -1.000000 0.000000 0.000000
vn -1.000000 0.000000 0.000000
vn 0.000000 0.000000 -1.000000
vn 0.000000 0.000000 -1.000000
vn 1.000000 0.000000 0.000000
vn 1.000000 0.000000 0.000000
vn 0.000000 0.000000 1.000000
vn 0.000000 0.000000 1.000000
vn -1.000000 0.000000 0.000000
vn -1.000000 0.000000 0.000000
vn 1.000000 0.000000 0.000000
vn 1.000000 0.000000 0.000000
vn 0.000000 1.000000 0.000000
vn 0.000000 1.000000 0.000000
vn 0.000000 0.000000 -1.000000
vn 0.000000 0.000000 -1.000000
vn 0.000000 0.000000 -1.000000
vn 0.000000 0.000000 -1.000000
vn 0.000000 0.000000 -1.000000
vn 0.000000 -1.000000 0.000000
vn 0.000000 -1.000000 0.000000
vn 0.000000 0.000000 1.000000
vn 0.000000 0.000000 1.000000
vn 0.000000 0.000000 1.000000
vn 0.000000 0.000000 1.000000
vn 0.000000 0.000000 1.000000
vn 0.000000 0.000000 -1.000000
vn 0.000000 0.000000 -1.000000
vn 0.000000 0.000000 -1.000000
vn 0.000000 -1.000000 0.000000
vn 0.000000 -1.000000 0.000000
vn 0.000000 0.000000 1.000000
vn 0.000000 0.000000 1.000000
vn 0.000000 0.000000 1.000000
vn 0.000000 0.000000 1.000000
vn 0.000000 0.000000 1.000000
vn 0.000000 0.000000 1.000000
vn 0.000000 0.000000 1.000000
vn -1.000000 0.000000 0.000000
vn -1.000000 0.000000 0.000000
vn -1.000000 0.000000 0.000000
vn -1.000000 0.000000 0.000000
vn 0.000000 0.000000 -1.000000
vn 0.000000 0.000000 -1.000000
vn 0.000000 0.000000 -1.000000
vn 0.000000 0.000000 -1.000000
vn 0.000000 0.000000 -1.000000
vn 0.000000 0.000000 -1.000000
vn 0.000000 0.000000 -1.000000
vn 0.000000 0.000000 -1.000000
vn 0.062075 0.000000 -0.998071
vn 0.056350 0.000000 -0.998411
vn 0.109321 0.000000 -0.994007
vn 0.109321 0.000000 -0.994007
vn 1.000000 0.000000 0.000000
vn 1.000000 0.000000 0.000000
vn 1.000000 0.000000 0.000000
vn 1.000000 0.000000 0.000000
vn 0.056350 0.000000 0.998411
vn 0.062075 0.000000 0.998071
vn 0.109321 0.000000 0.994007
vn 0.109320 0.000000 0.994007
vn 0.000000 0.000000 1.000000
vn 0.000000 0.000000 1.000000
vn 0.000000 0.000000 1.000000
vn 0.000000 0.000000 1.000000
vn 1.000000 0.000000 0.000000
vn 1.000000 0.000000 0.000000
vn 1.000000 0.000000 0.000000
vn 1.000000 0.000000 0.000000
vn 1.000000 0.000000 0.000000
vn 1.000000 0.000000 0.000000
vn 0.000000 -1.000000 0.000000
vn 0.000000 -1.000000 0.000000
vn 0.000000 -1.000000 0.000000
vn 0.000000 -1.000000 0.000000
vn 0.000000 -1.000000 0.000000
vn 0.000000 -1.000000 0.000000
vn 0.000000 -1.000000 0.000000
vn 0.000000 -1.000000 0.000000
vn -1.000000 0.000000 0.000000
vn -1.000000 0.000000 0.000000
vn -1.000000 0.000000 0.000000
vn -1.000000 0.000000 0.000000
vn -1.000000 0.000000 0.000000
vn -1.000000 0.000000 0.000000
vn -1.000000 0.000000 0.000000
vn -1.000000 0.000000 0.000000
vn -0.262632 -0.964896 0.000000
vn -0.262632 -0.964896 0.000000
vn -0.262632 -0.964896 0.000000
vn -0.262632 -0.964896 0.000000
vn -1.000000 0.000000 0.000000
vn -1.000000 0.000000 0.000000
vn -1.000000 0.000000 0.000000
vn -1.000000 0.000000 0.000000
vn -1.000000 0.000000 0.000000
vn -1.000000 0.000000 0.000000
vn -1.000000 0.000000 0.000000
vn -1.000000 0.000000 0.000000
vn -0.214879 0.976641 0.000000
vn -0.214879 0.976641 0.000000
vn -0.262632 0.964896 0.000000
vn -0.262632 0.964896 0.000000
vn 0.000000 1.000000 0.000000
vn 0.000000 1.000000 0.000000
vn 0.000000 1.000000 0.000000
vn 0.000000 1.000000 0.000000
vn 0.269122 0.963106 0.000000
vn 0.269959 0.962872 0.000000
vn 0.383249 0.923645 0.000000
vn 0.383249 0.923645 0.000000
vn 1.000000 0.000000 0.000000
vn 1.000000 0.000000 0.000000
vn 1.000000 0.000000 0.000000
vn 1.000000 0.000000 0.000000
vn 1.000000 0.000000 0.000000
vn 1.000000 0.000000 0.000000
vn 1.000000 0.000000 0.000000
vn 1.000000 0.000000 0.000000
vn 0.383249 -0.923645 0.000000
vn 0.383249 -0.923645 0.000000
vn 0.383249 -0.923645 0.000000
vn 0.383249 -0.923645 0.000000
vn 1.000000 0.000000 0.000000
vn 1.000000 0.000000 0.000000
s 1
g pCube28
usemtl lambert8SG
f 1/1/1 35/47/2 36/49/3 21/29/4
s 2
usemtl lambert9SG
f 108/133/5 109/134/6 30/42/7 5/5/8
s 3
usemtl lambert8SG
f 22/31/9 33/45/10 34/46/11 7/7/12
s 4
f 7/7/13 34/46/14 99/122/15 100/124/16
s 5
f 97/120/17 8/11/18 23/33/19 96/118/20
s 6
f 7/13/21 100/123/22 101/125/23 22/30/24
s 7
usemtl lambert9SG
f 14/21/25 104/128/26 105/129/27 63/79/28
s 3
f 64/81/29 65/82/30 31/43/31 10/17/32
s 9
f 115/141/33 17/26/34 68/86/35 114/140/36
s 1
f 9/15/37 38/51/38 72/90/39 61/77/40
s 11
f 10/16/41 103/127/42 104/128/43 14/21/44
s 1
f 9/15/37 61/77/40 62/78/45 13/22/46
s 2
f 108/132/5 5/14/8 16/24/47 107/131/48
s 3
f 64/80/29 10/16/32 14/21/49 63/79/50
s 12
f 116/142/51 11/19/52 17/26/53 115/141/54
s 3
f 11/19/55 67/85/56 68/86/57 17/26/58
s 2
f 6/12/59 111/137/60 112/138/61 19/27/62
s 1
f 70/88/63 12/20/64 18/25/65 69/87/66
s 6
usemtl lambert8SG
f 22/30/24 101/125/23 102/126/67 26/36/68
s 3
f 26/37/69 32/44/70 33/45/10 22/31/9
s 5
f 96/118/20 23/33/19 27/39/71 95/117/72
s 1
f 21/29/4 36/49/3 37/50/73 25/35/74
s 6
f 26/36/68 102/126/67 103/127/75 10/16/76
s 3
f 10/17/32 31/43/31 32/44/70 26/37/69
s 5
f 116/142/77 95/117/72 27/39/71 11/19/78
s 1
f 25/35/74 37/50/73 38/51/38 9/15/37
s 2
usemtl lambert9SG
f 109/134/6 110/135/79 40/53/80 30/42/7
s 3
f 31/43/31 65/82/30 66/83/81 41/54/82
usemtl lambert8SG
f 32/44/70 31/43/31 41/54/82 42/55/83
f 33/45/10 32/44/70 42/55/83 43/56/84
f 34/46/11 33/45/10 43/56/84 44/57/85
s 4
f 99/122/15 34/46/14 44/57/86 98/121/87
s 1
f 36/49/3 35/47/2 45/58/88 46/60/89
f 37/50/73 36/49/3 46/60/89 47/61/90
f 38/51/38 37/50/73 47/61/90 48/62/91
usemtl lambert9SG
f 72/90/39 38/51/38 48/62/91 71/89/92
s 2
f 110/135/79 111/136/60 6/6/59 40/53/80
s 3
f 41/54/82 66/83/81 67/84/56 11/18/55
usemtl lambert8SG
f 42/55/83 41/54/82 11/18/55 27/38/93
f 43/56/84 42/55/83 27/38/93 23/32/94
f 44/57/85 43/56/84 23/32/94 8/8/95
s 4
f 98/121/87 44/57/86 8/8/96 97/119/97
s 1
f 46/60/89 45/58/88 2/2/98 24/34/99
f 47/61/90 46/60/89 24/34/99 28/40/100
f 48/62/91 47/61/90 28/40/100 12/20/64
usemtl lambert9SG
f 71/89/92 48/62/91 12/20/64 70/88/63
f 49/63/101 3/3/102 15/23/103 50/64/104
s 7
f 51/65/105 106/130/106 107/131/107 16/24/108
s 3
f 5/14/109 52/66/110 51/65/111 16/24/112
f 5/5/109 30/42/113 53/68/114 52/67/110
f 54/69/115 53/68/114 30/42/113 40/53/116
f 55/70/117 54/69/115 40/53/116 6/6/118
f 56/72/119 55/71/117 6/12/118 19/27/120
s 9
f 113/139/121 56/72/122 19/27/123 112/138/124
s 1
f 4/4/125 58/74/126 57/73/127 20/28/128
f 39/52/129 59/75/130 58/74/126 4/4/125
f 29/41/131 60/76/132 59/75/130 39/52/129
f 49/63/101 60/76/132 29/41/131 3/3/102
f 61/77/40 49/63/101 50/64/104 62/78/45
s 7
f 63/79/28 105/129/27 106/130/106 51/65/105
s 3
f 52/66/110 64/80/29 63/79/50 51/65/111
f 52/67/110 53/68/114 65/82/30 64/81/29
f 66/83/81 65/82/30 53/68/114 54/69/115
f 67/84/56 66/83/81 54/69/115 55/70/117
f 68/86/57 67/85/56 55/71/117 56/72/119
s 9
f 114/140/36 68/86/35 56/72/122 113/139/121
s 1
f 58/74/126 70/88/63 69/87/66 57/73/127
f 59/75/130 71/89/92 70/88/63 58/74/126
f 60/76/132 72/90/39 71/89/92 59/75/130
f 61/77/40 72/90/39 60/76/132 49/63/101
s 5
usemtl lambert8SG
f 24/34/133 74/92/134 73/91/135 28/40/136
f 2/2/137 75/94/138 74/92/134 24/34/133
s 4
f 45/59/139 76/95/140 75/93/141 2/10/142
f 35/48/143 77/96/144 76/95/140 45/59/139
f 78/98/145 77/96/144 35/48/143 1/9/146
s 6
f 79/99/147 78/97/148 1/1/149 21/29/150
f 80/100/151 79/99/147 21/29/150 25/35/152
f 81/101/153 80/100/151 25/35/152 9/15/154
s 11
usemtl lambert9SG
f 82/102/155 81/101/156 9/15/157 13/22/158
s 7
f 83/103/159 82/102/160 13/22/161 62/78/162
f 84/104/163 83/103/159 62/78/162 50/64/164
f 85/105/165 84/104/163 50/64/164 15/23/166
s 2
f 3/3/167 86/106/168 85/105/169 15/23/170
f 3/3/167 29/41/171 87/108/172 86/107/168
f 29/41/171 39/52/173 88/109/174 87/108/172
f 39/52/173 4/4/175 89/110/176 88/109/174
f 90/112/177 89/111/176 4/4/175 20/28/178
s 9
f 57/73/179 91/113/180 90/112/181 20/28/182
f 69/87/183 92/114/184 91/113/180 57/73/179
f 18/25/185 93/115/186 92/114/184 69/87/183
s 12
f 12/20/187 94/116/188 93/115/189 18/25/190
s 5
usemtl lambert8SG
f 28/40/136 73/91/135 94/116/191 12/20/192
f 74/92/134 96/118/20 95/117/72 73/91/135
f 75/94/138 97/120/17 96/118/20 74/92/134
s 4
f 76/95/140 98/121/87 97/119/97 75/93/141
f 77/96/144 99/122/15 98/121/87 76/95/140
f 100/124/16 99/122/15 77/96/144 78/98/145
s 6
f 101/125/23 100/123/22 78/97/148 79/99/147
f 102/126/67 101/125/23 79/99/147 80/100/151
f 103/127/75 102/126/67 80/100/151 81/101/153
s 11
usemtl lambert9SG
f 104/128/43 103/127/42 81/101/156 82/102/155
s 7
f 105/129/27 104/128/26 82/102/160 83/103/159
f 106/130/106 105/129/27 83/103/159 84/104/163
f 107/131/107 106/130/106 84/104/163 85/105/165
s 2
f 86/106/168 108/132/5 107/131/48 85/105/169
f 86/107/168 87/108/172 109/134/6 108/133/5
f 87/108/172 88/109/174 110/135/79 109/134/6
f 88/109/174 89/110/176 111/136/60 110/135/79
f 112/138/61 111/137/60 89/111/176 90/112/177
s 9
f 91/113/180 113/139/121 112/138/124 90/112/181
f 92/114/184 114/140/36 113/139/121 91/113/180
f 93/115/186 115/141/33 114/140/36 92/114/184
s 12
f 94/116/188 116/142/51 115/141/54 93/115/189
s 5
usemtl lambert8SG
f 94/116/191 73/91/135 95/117/72 116/142/77
