# This file uses centimeters as units for non-parametric coordinates.

mtllib Platform14.mtl
g default
v 54.785249 -1.168043 -0.074233
v 67.667430 -1.168043 -0.074233
v 54.785249 0.821006 -0.074233
v 67.667430 0.821006 -0.074233
v 54.785249 0.821006 -3.711782
v 67.667430 0.821006 -3.711782
v 54.785249 -1.168043 -3.711782
v 67.667430 -1.168043 -3.711782
v 54.785249 0.204082 -0.074233
v 54.785249 0.204082 -3.711782
v 67.667430 0.204082 -3.711782
v 67.667430 0.204082 -0.074233
v 53.425863 0.132108 0.394097
v 53.425863 0.132108 -4.048357
v 53.425863 0.892980 0.394097
v 53.425863 0.892980 -4.048357
v 69.158571 0.892980 -4.048357
v 69.158571 0.132108 -4.048357
v 69.158571 0.132108 0.394097
v 69.158571 0.892980 0.394097
v 53.526014 0.892980 0.394097
v 54.867254 0.821006 -0.074233
v 54.867254 0.821006 -3.711782
v 53.526014 0.892980 -4.048357
v 53.526014 0.132108 -4.048357
v 54.867254 0.204082 -3.711782
v 54.867254 -1.168043 -3.711782
v 54.867254 -1.168043 -0.074233
v 54.867254 0.204082 -0.074233
v 53.526014 0.132108 0.394097
v 69.038157 0.892980 0.394097
v 67.568833 0.821006 -0.074233
v 67.568833 0.821006 -3.711782
v 69.038157 0.892980 -4.048357
v 69.038157 0.132108 -4.048357
v 67.568833 0.204082 -3.711782
v 67.568833 -1.168043 -3.711782
v 67.568833 -1.168043 -0.074233
v 67.568833 0.204082 -0.074233
v 69.038157 0.132108 0.394097
v 69.158570 0.244800 0.394097
v 69.038157 0.244800 0.394097
v 53.526014 0.244800 0.394097
v 53.425863 0.244800 0.394097
v 53.425863 0.244800 -4.048357
v 53.526014 0.244800 -4.048357
v 69.038157 0.244800 -4.048357
v 69.158571 0.244800 -4.048357
v 69.158571 0.819248 0.394097
v 69.038157 0.819248 0.394097
v 53.526014 0.819248 0.394097
v 53.425863 0.819248 0.394097
v 53.425863 0.819248 -4.048357
v 53.526014 0.819248 -4.048357
v 69.038157 0.819248 -4.048357
v 69.158571 0.819248 -4.048357
v 67.667430 -1.083087 -3.711782
v 67.568833 -1.083087 -3.711782
v 54.867254 -1.083087 -3.711782
v 54.785249 -1.083087 -3.711782
v 54.785249 -1.083087 -0.074233
v 54.867254 -1.083087 -0.074233
v 67.568833 -1.083087 -0.074233
v 67.667430 -1.083087 -0.074233
v 67.568833 0.177718 -0.074233
v 54.867254 0.177718 -0.074233
v 54.785249 0.177718 -0.074233
v 54.785249 0.177718 -3.711782
v 54.867254 0.177718 -3.711782
v 67.568833 0.177718 -3.711782
v 67.667430 0.177718 -3.711782
v 67.667430 0.177718 -0.074233
v 54.785249 0.177718 -0.100953
v 54.785249 -1.083087 -0.100953
v 54.785249 -1.168043 -0.100953
v 54.867254 -1.168043 -0.100953
v 67.568833 -1.168043 -0.100953
v 67.667430 -1.168043 -0.100953
v 67.667430 -1.083087 -0.100953
v 67.667430 0.177718 -0.100953
v 67.667430 0.204082 -0.100953
v 69.158571 0.132108 0.361465
v 69.158570 0.244800 0.361465
v 69.158571 0.819248 0.361465
v 69.158571 0.892980 0.361465
v 67.667430 0.821006 -0.100953
v 67.568832 0.821006 -0.100953
v 54.867254 0.821006 -0.100953
v 54.785249 0.821006 -0.100953
v 53.425863 0.892980 0.361465
v 53.425863 0.819248 0.361465
v 53.425863 0.244800 0.361465
v 53.425863 0.132108 0.361465
v 54.785249 0.204082 -0.100953
v 54.785249 -1.083087 -3.614088
v 54.785249 0.177718 -3.614088
v 54.785249 0.204082 -3.614088
v 53.425863 0.132108 -3.929046
v 53.425863 0.244800 -3.929046
v 53.425863 0.819248 -3.929046
v 53.425863 0.892980 -3.929046
v 54.785249 0.821006 -3.614088
v 54.867254 0.821006 -3.614088
v 67.568833 0.821006 -3.614088
v 67.667430 0.821006 -3.614088
v 69.158571 0.892980 -3.929046
v 69.158571 0.819248 -3.929046
v 69.158571 0.244800 -3.929046
v 69.158571 0.132108 -3.929046
v 67.667430 0.204082 -3.614088
v 67.667430 0.177718 -3.614088
v 67.667430 -1.083087 -3.614088
v 67.667430 -1.168043 -3.614088
v 67.568833 -1.168043 -3.614088
v 54.867254 -1.168043 -3.614088
v 54.785249 -1.168043 -3.614088
vt 0.375000 0.000000
vt 0.625000 0.000000
vt 0.375000 0.250000
vt 0.625000 0.250000
vt 0.375000 0.500000
vt 0.625000 0.500000
vt 0.375000 0.750000
vt 0.625000 0.750000
vt 0.375000 1.000000
vt 0.625000 1.000000
vt 0.875000 0.000000
vt 0.875000 0.250000
vt 0.125000 0.000000
vt 0.125000 0.250000
vt 0.375000 0.172460
vt 0.125000 0.172460
vt 0.375000 0.577540
vt 0.625000 0.577540
vt 0.875000 0.172460
vt 0.625000 0.172460
vt 0.125000 0.172460
vt 0.375000 0.172460
vt 0.375000 0.250000
vt 0.125000 0.250000
vt 0.375000 0.500000
vt 0.625000 0.500000
vt 0.625000 0.577540
vt 0.375000 0.577540
vt 0.625000 0.172460
vt 0.875000 0.172460
vt 0.875000 0.250000
vt 0.625000 0.250000
vt 0.376591 0.250000
vt 0.376591 0.250000
vt 0.376591 0.500000
vt 0.376591 0.500000
vt 0.376591 0.577540
vt 0.376591 0.577540
vt 0.376591 0.750000
vt 0.376591 0.000000
vt 0.376591 1.000000
vt 0.376591 0.172460
vt 0.376591 0.172460
vt 0.623087 0.250000
vt 0.623087 0.250000
vt 0.623087 0.500000
vt 0.623087 0.500000
vt 0.623087 0.577540
vt 0.623087 0.577540
vt 0.623087 0.750000
vt 0.623087 0.000000
vt 0.623087 1.000000
vt 0.623087 0.172460
vt 0.623087 0.172460
vt 0.625000 0.183944
vt 0.623087 0.183944
vt 0.376591 0.183944
vt 0.375000 0.183944
vt 0.125000 0.183944
vt 0.375000 0.566056
vt 0.376591 0.566056
vt 0.623087 0.566056
vt 0.625000 0.566056
vt 0.875000 0.183944
vt 0.625000 0.242486
vt 0.623087 0.242486
vt 0.376591 0.242486
vt 0.375000 0.242486
vt 0.125000 0.242486
vt 0.375000 0.507514
vt 0.376591 0.507514
vt 0.623087 0.507514
vt 0.625000 0.507514
vt 0.875000 0.242486
vt 0.625000 0.739322
vt 0.875000 0.010678
vt 0.623087 0.739322
vt 0.376591 0.739322
vt 0.125000 0.010678
vt 0.375000 0.739322
vt 0.375000 0.010678
vt 0.376591 0.010678
vt 0.623087 0.010678
vt 0.625000 0.010678
vt 0.623087 0.169146
vt 0.376591 0.169146
vt 0.375000 0.169146
vt 0.125000 0.169146
vt 0.375000 0.580854
vt 0.376591 0.580854
vt 0.623087 0.580854
vt 0.625000 0.580854
vt 0.875000 0.169146
vt 0.625000 0.169146
vt 0.373164 0.169146
vt 0.373164 0.010678
vt 0.373164 0.000000
vt 0.375000 0.998164
vt 0.376591 0.998164
vt 0.623087 0.998164
vt 0.625000 0.998164
vt 0.626836 0.000000
vt 0.626836 0.010678
vt 0.626836 0.169146
vt 0.626836 0.172460
vt 0.626836 0.172460
vt 0.626836 0.183944
vt 0.626836 0.242486
vt 0.626836 0.250000
vt 0.625000 0.251836
vt 0.626836 0.250000
vt 0.623087 0.251836
vt 0.376591 0.251836
vt 0.373164 0.250000
vt 0.375000 0.251836
vt 0.373164 0.250000
vt 0.373164 0.242486
vt 0.373164 0.183944
vt 0.373164 0.172460
vt 0.373164 0.172460
vt 0.131714 0.010678
vt 0.131714 0.169146
vt 0.131714 0.172460
vt 0.131714 0.172460
vt 0.131714 0.183944
vt 0.131714 0.242486
vt 0.131714 0.250000
vt 0.131714 0.250000
vt 0.375000 0.493286
vt 0.376591 0.493286
vt 0.623087 0.493286
vt 0.625000 0.493286
vt 0.868286 0.250000
vt 0.868286 0.250000
vt 0.868286 0.242486
vt 0.868286 0.183944
vt 0.868286 0.172460
vt 0.868286 0.172460
vt 0.868286 0.169146
vt 0.868286 0.010678
vt 0.625000 0.756714
vt 0.868286 0.000000
vt 0.623087 0.756714
vt 0.376591 0.756714
vt 0.131714 0.000000
vt 0.375000 0.756714
vn 0.000000 0.000000 1.000000
vn 0.000000 0.000000 1.000000
vn 0.000000 0.000000 1.000000
vn 0.000000 0.000000 1.000000
vn 0.026256 0.996889 -0.074315
vn 0.000000 0.989181 -0.146698
vn 0.000000 1.000000 -0.000000
vn 0.051068 0.998695 0.000000
vn 0.000000 0.000000 -1.000000
vn 0.000000 0.000000 -1.000000
vn 0.000000 0.000000 -1.000000
vn 0.000000 0.000000 -1.000000
vn 0.000000 -1.000000 0.000000
vn 0.000000 -1.000000 0.000000
vn 0.000000 -1.000000 0.000000
vn 0.000000 -1.000000 0.000000
vn 1.000000 0.000000 0.000000
vn 1.000000 0.000000 0.000000
vn 1.000000 0.000000 0.000000
vn 1.000000 0.000000 0.000000
vn -1.000000 0.000000 0.000000
vn -1.000000 0.000000 0.000000
vn -1.000000 0.000000 0.000000
vn -1.000000 0.000000 0.000000
vn -1.000000 0.000000 0.000000
vn -1.000000 0.000000 0.000000
vn -1.000000 0.000000 0.000000
vn -1.000000 0.000000 0.000000
vn 0.000000 0.000000 -1.000000
vn 0.000000 0.000000 -1.000000
vn 0.000000 0.000000 -1.000000
vn 0.000000 0.000000 -1.000000
vn 1.000000 0.000006 0.000000
vn 1.000000 0.000000 0.000000
vn 1.000000 0.000000 0.000000
vn 1.000000 0.000000 0.000000
vn 0.000000 0.000000 1.000000
vn 0.000000 0.000000 1.000000
vn 0.000000 0.000000 1.000000
vn 0.000000 0.000000 1.000000
vn 0.052872 -0.998601 0.000000
vn 0.026720 -0.996778 -0.075629
vn 0.022563 -0.995904 -0.087561
vn 0.052872 -0.998601 0.000000
vn 0.052872 0.998601 0.000000
vn 0.022563 0.995904 -0.087561
vn 0.042060 0.998421 0.037226
vn 0.000000 0.983793 0.179309
vn 0.000000 0.977891 0.209116
vn 0.044850 0.998469 0.032372
vn 0.000000 -0.977891 0.209116
vn 0.043356 -0.998322 0.038374
vn 0.044850 -0.998469 0.032372
vn 0.000000 -0.977891 0.209116
vn -0.022801 -0.996490 -0.080546
vn -0.048212 -0.998837 0.000000
vn -0.048212 -0.998837 0.000000
vn -0.020765 -0.995996 -0.086953
vn -0.046384 0.998924 0.000000
vn -0.022388 0.996616 -0.079088
vn -0.020765 0.995996 -0.086953
vn -0.048212 0.998837 0.000000
vn 0.000000 -0.988396 -0.151900
vn 0.000000 -0.988396 -0.151900
vn 0.000000 0.988396 -0.151900
vn 0.000000 0.989167 -0.146792
vn 0.000000 0.988396 -0.151900
vn 0.000000 1.000000 -0.000000
vn 0.000000 0.983710 0.179763
vn 0.000000 0.977891 0.209116
vn 0.000000 0.000000 -1.000000
vn 0.000000 0.000000 -1.000000
vn 0.000000 -0.977891 0.209116
vn 0.000000 -0.977891 0.209116
vn 0.000000 0.000000 -1.000000
vn 0.000000 0.000000 -1.000000
vn 0.000000 -1.000000 0.000000
vn 0.000000 -1.000000 0.000000
vn 0.000000 0.000000 1.000000
vn 0.000000 0.000000 1.000000
vn 0.000000 -0.988396 -0.151900
vn 0.000000 -0.988396 -0.151900
vn 0.000000 0.000000 1.000000
vn 0.000000 0.000000 1.000000
vn -0.037319 0.998453 0.041219
vn -0.040995 0.998649 0.031932
vn 0.000000 0.000000 -1.000000
vn 0.000000 0.000000 -1.000000
vn -0.038572 -0.998347 0.042603
vn -0.040995 -0.998649 0.031932
vn 0.000000 0.000000 -1.000000
vn 0.000000 0.000000 -1.000000
vn 0.000000 -1.000000 0.000000
vn 0.000000 -1.000000 0.000000
vn 0.000000 0.000000 1.000000
vn 0.000000 0.000000 1.000000
vn 0.000000 0.000000 1.000000
vn 0.000000 0.000000 1.000000
vn 0.000000 0.000000 1.000000
vn 0.000000 0.000000 1.000000
vn 0.000000 0.000000 1.000000
vn 0.000000 0.000000 1.000000
vn -1.000000 0.000000 0.000000
vn -1.000000 0.000000 0.000000
vn 0.000000 0.000000 -1.000000
vn 0.000000 0.000000 -1.000000
vn 0.000000 0.000000 -1.000000
vn 0.000000 0.000000 -1.000000
vn 1.000000 -0.000000 0.000000
vn 1.000000 -0.000001 0.000000
vn 0.000000 0.000000 1.000000
vn 0.000000 0.000000 1.000000
vn 0.000000 0.000000 1.000000
vn 0.000000 0.000000 1.000000
vn -1.000000 0.000000 0.000000
vn -1.000000 0.000000 0.000000
vn 0.000000 0.000000 -1.000000
vn 0.000000 0.000000 -1.000000
vn 0.000000 0.000000 -1.000000
vn 0.000000 0.000000 -1.000000
vn 1.000000 0.000000 0.000000
vn 1.000000 0.000000 0.000000
vn 0.000000 0.000000 -1.000000
vn 0.000000 0.000000 -1.000000
vn 0.000000 0.000000 -1.000000
vn 0.000000 0.000000 -1.000000
vn -1.000000 0.000000 0.000000
vn -1.000000 0.000000 0.000000
vn 0.000000 0.000000 1.000000
vn 0.000000 0.000000 1.000000
vn 0.000000 0.000000 1.000000
vn 0.000000 0.000000 1.000000
vn 1.000000 0.000000 0.000000
vn 1.000000 0.000000 0.000000
vn 0.000000 0.000000 1.000000
vn 0.000000 0.000000 1.000000
vn 0.000000 0.000000 1.000000
vn -1.000000 0.000000 0.000000
vn -1.000000 0.000000 0.000000
vn 0.000000 0.000000 -1.000000
vn 0.000000 0.000000 -1.000000
vn 0.000000 0.000000 -1.000000
vn 0.000000 0.000000 -1.000000
vn 1.000000 0.000000 0.000000
vn 1.000000 0.000000 0.000000
vn 0.000000 0.000000 1.000000
vn -1.000000 0.000000 0.000000
vn -1.000000 0.000000 0.000000
vn -1.000000 0.000000 0.000000
vn -1.000000 0.000000 0.000000
vn -1.000000 0.000000 0.000000
vn -1.000000 0.000000 0.000000
vn 0.000000 -1.000000 0.000000
vn 0.000000 -1.000000 0.000000
vn 0.000000 -1.000000 0.000000
vn 0.000000 -1.000000 0.000000
vn 0.000000 -1.000000 0.000000
vn 0.000000 -1.000000 0.000000
vn 0.000000 -1.000000 0.000000
vn 0.000000 -1.000000 0.000000
vn 1.000000 0.000000 0.000000
vn 1.000000 0.000000 0.000000
vn 1.000000 0.000000 0.000000
vn 1.000000 0.000000 0.000000
vn 1.000000 0.000000 0.000000
vn 1.000000 0.000000 0.000000
vn 1.000000 0.000000 0.000000
vn 1.000000 0.000000 0.000000
vn -0.048212 -0.998837 0.000000
vn -0.048212 -0.998837 0.000000
vn 1.000000 0.000000 0.000000
vn 1.000000 0.000000 0.000000
vn 1.000000 0.000000 0.000000
vn 1.000000 0.000000 0.000000
vn 1.000000 0.000000 0.000000
vn 1.000000 0.000000 0.000000
vn 1.000000 0.000000 0.000000
vn 1.000000 0.000000 0.000000
vn -0.046213 0.998932 0.000000
vn -0.048212 0.998837 0.000000
vn 0.000000 1.000000 0.000000
vn 0.000000 1.000000 0.000000
vn 0.050899 0.998704 0.000000
vn 0.052872 0.998601 0.000000
vn -1.000000 0.000000 0.000000
vn -1.000000 0.000000 0.000000
vn -1.000000 0.000000 0.000000
vn -1.000000 0.000000 0.000000
vn -1.000000 0.000000 0.000000
vn -1.000000 0.000000 0.000000
vn -1.000000 0.000000 0.000000
vn -1.000000 0.000000 0.000000
vn 0.052872 -0.998601 0.000000
vn 0.052872 -0.998601 0.000000
vn -1.000000 0.000000 0.000000
vn -1.000000 0.000000 0.000000
s 1
g pCube29
usemtl lambert8SG
f 61/81/1 62/82/2 66/86/3 67/87/4
s 2
f 3/3/5 22/34/6 88/113/7 89/115/8
s 3
f 68/89/9 69/90/10 59/78/11 60/80/12
s 4
f 75/98/13 76/99/14 28/41/15 1/9/16
s 5
f 64/84/17 79/103/18 80/104/19 72/94/20
s 6
f 74/96/21 61/81/22 67/87/23 73/95/24
s 7
usemtl lambert9SG
f 93/119/25 13/22/26 44/58/27 92/118/28
s 8
f 45/60/29 46/61/30 25/37/31 14/28/32
s 9
f 19/29/33 82/106/34 83/107/35 41/55/36
s 10
f 13/22/37 30/43/38 43/57/39 44/58/40
s 11
usemtl lambert8SG
f 94/120/41 9/15/42 13/22/43 93/119/44
s 2
f 3/3/5 89/114/8 90/116/45 15/23/46
f 5/5/47 23/35/48 24/36/49 16/25/50
s 11
f 26/38/51 10/17/52 14/28/53 25/37/54
f 12/20/55 81/105/56 82/106/57 19/29/58
s 2
f 86/111/59 4/4/60 20/32/61 85/109/62
s 11
f 9/15/42 29/42/63 30/43/64 13/22/43
s 2
f 22/34/6 3/3/5 15/23/46 21/33/65
f 32/45/66 22/34/6 21/33/65 31/44/67
f 88/113/7 22/34/6 32/45/66 87/112/68
f 24/36/49 23/35/48 33/46/69 34/47/70
s 8
usemtl lambert9SG
f 25/37/31 46/61/30 47/62/71 35/48/72
s 11
usemtl lambert8SG
f 36/49/73 26/38/51 25/37/54 35/48/74
s 3
f 59/78/11 69/90/10 70/91/75 58/77/76
s 4
f 28/41/15 76/99/14 77/100/77 38/52/78
s 1
f 66/86/3 62/82/2 63/83/79 65/85/80
s 11
f 30/43/64 29/42/63 39/53/81 40/54/82
s 10
usemtl lambert9SG
f 43/57/39 30/43/38 40/54/83 42/56/84
s 2
usemtl lambert8SG
f 4/4/60 32/45/66 31/44/67 20/32/61
f 87/112/68 32/45/66 4/4/60 86/110/59
f 34/47/70 33/46/69 6/6/85 17/26/86
s 8
usemtl lambert9SG
f 35/48/72 47/62/71 48/63/87 18/27/88
s 11
usemtl lambert8SG
f 11/18/89 36/49/73 35/48/74 18/27/90
s 3
f 58/77/76 70/91/75 71/92/91 57/75/92
s 4
f 38/52/78 77/100/77 78/101/93 2/10/94
s 1
f 72/94/95 65/85/80 63/83/79 64/84/96
s 11
f 40/54/82 39/53/81 12/20/55 19/29/58
s 10
usemtl lambert9SG
f 42/56/84 40/54/83 19/29/97 41/55/98
usemtl lambert8SG
f 50/66/99 42/56/84 41/55/98 49/65/100
f 51/67/101 43/57/39 42/56/84 50/66/99
f 44/58/40 43/57/39 51/67/101 52/68/102
s 7
f 92/118/28 44/58/27 52/68/103 91/117/104
s 8
f 53/70/105 54/71/106 46/61/30 45/60/29
f 47/62/71 46/61/30 54/71/106 55/72/107
f 48/63/87 47/62/71 55/72/107 56/73/108
s 9
f 41/55/36 83/107/35 84/108/109 49/65/110
s 10
usemtl lambert9SG
f 31/44/111 50/66/99 49/65/100 20/32/112
f 21/33/113 51/67/101 50/66/99 31/44/111
f 52/68/102 51/67/101 21/33/113 15/23/114
s 7
f 91/117/104 52/68/103 15/23/115 90/116/116
s 8
f 16/25/117 24/36/118 54/71/106 53/70/105
f 55/72/107 54/71/106 24/36/118 34/47/119
f 56/73/108 55/72/107 34/47/119 17/26/120
s 9
f 49/65/110 84/108/109 85/109/121 20/32/122
s 3
f 37/50/123 58/77/76 57/75/92 8/8/124
f 27/39/125 59/78/11 58/77/76 37/50/123
f 60/80/12 59/78/11 27/39/125 7/7/126
s 6
f 75/97/127 1/1/128 61/81/22 74/96/21
s 1
f 1/1/129 28/40/130 62/82/2 61/81/1
f 63/83/79 62/82/2 28/40/130 38/51/131
f 64/84/96 63/83/79 38/51/131 2/2/132
s 5
f 2/2/133 78/102/134 79/103/18 64/84/17
s 1
f 29/42/135 66/86/3 65/85/80 39/53/136
f 67/87/4 66/86/3 29/42/135 9/15/137
s 6
f 94/120/138 73/95/24 67/87/23 9/15/139
s 3
f 10/17/140 26/38/141 69/90/10 68/89/9
f 70/91/75 69/90/10 26/38/141 36/49/142
f 71/92/91 70/91/75 36/49/142 11/18/143
s 5
f 72/94/20 80/104/19 81/105/144 12/20/145
s 1
f 39/53/136 65/85/80 72/94/95 12/20/146
s 6
usemtl lambert8SG
f 60/79/147 95/121/148 96/122/149 68/88/150
usemtl lambert9SG
f 7/13/151 116/145/152 95/121/148 60/79/147
s 4
usemtl lambert8SG
f 7/7/153 27/39/154 115/144/155 116/146/156
f 114/143/157 115/144/155 27/39/154 37/50/158
f 113/141/159 114/143/157 37/50/158 8/8/160
s 5
usemtl lambert9SG
f 112/140/161 113/142/162 8/11/163 57/76/164
usemtl lambert8SG
f 111/139/165 112/140/161 57/76/164 71/93/166
usemtl lambert9SG
f 110/138/167 111/139/165 71/93/166 11/19/168
s 11
usemtl lambert8SG
f 109/137/169 110/138/170 11/19/89 18/30/90
s 9
usemtl lambert9SG
f 108/136/171 109/137/172 18/30/173 48/64/174
usemtl lambert8SG
f 107/135/175 108/136/171 48/64/174 56/74/176
usemtl lambert9SG
f 106/134/177 107/135/175 56/74/176 17/31/178
s 2
usemtl lambert8SG
f 6/12/85 105/133/179 106/134/180 17/31/86
f 33/46/69 104/131/181 105/132/179 6/6/85
f 23/35/48 103/130/182 104/131/181 33/46/69
f 102/129/183 103/130/182 23/35/48 5/5/47
f 101/127/184 102/128/183 5/14/47 16/24/50
s 7
usemtl lambert9SG
f 53/69/185 100/126/186 101/127/187 16/24/188
usemtl lambert8SG
f 45/59/189 99/125/190 100/126/186 53/69/185
usemtl lambert9SG
f 14/21/191 98/124/192 99/125/190 45/59/189
s 11
usemtl lambert8SG
f 10/16/52 97/123/193 98/124/194 14/21/53
s 6
usemtl lambert9SG
f 68/88/150 96/122/149 97/123/195 10/16/196
f 95/121/148 74/96/21 73/95/24 96/122/149
f 97/123/195 96/122/149 73/95/24 94/120/138
s 11
f 98/124/194 97/123/193 94/120/41 93/119/44
s 7
f 99/125/190 98/124/192 93/119/25 92/118/28
f 100/126/186 99/125/190 92/118/28 91/117/104
f 101/127/187 100/126/186 91/117/104 90/116/116
s 2
f 90/116/45 89/114/8 102/128/183 101/127/184
f 89/115/8 88/113/7 103/130/182 102/129/183
f 104/131/181 103/130/182 88/113/7 87/112/68
f 105/132/179 104/131/181 87/112/68 86/110/59
f 106/134/180 105/133/179 86/111/59 85/109/62
s 9
f 85/109/121 84/108/109 107/135/175 106/134/177
f 84/108/109 83/107/35 108/136/171 107/135/175
f 83/107/35 82/106/34 109/137/172 108/136/171
s 11
f 82/106/57 81/105/56 110/138/170 109/137/169
s 5
f 81/105/144 80/104/19 111/139/165 110/138/167
f 80/104/19 79/103/18 112/140/161 111/139/165
f 79/103/18 78/102/134 113/142/162 112/140/161
s 4
f 78/101/93 77/100/77 114/143/157 113/141/159
f 77/100/77 76/99/14 115/144/155 114/143/157
f 116/146/156 115/144/155 76/99/14 75/98/13
s 6
f 95/121/148 116/145/152 75/97/127 74/96/21
