# This file uses centimeters as units for non-parametric coordinates.

mtllib Platform6.mtl
g default
v -13.770661 2.179598 1.037182
v -7.063148 2.179598 1.037182
v -13.770661 3.179598 1.037182
v -7.063148 3.179598 1.037182
v -13.770661 3.179598 0.037182
v -7.063148 3.179598 0.037182
v -13.770661 2.179598 0.037182
v -7.063148 2.179598 0.037182
v -10.520104 0.311319 1.037182
v -13.770661 2.813736 1.037182
v -10.481767 0.979518 1.037182
v -13.770661 2.813736 0.037182
v -10.481767 0.979518 0.037182
v -10.520104 0.311319 0.037182
v -7.063148 2.813736 1.037182
v -7.063148 2.813736 0.037182
v -13.770661 2.859747 1.037182
v -13.770661 2.859747 0.037182
v -7.063148 2.859747 0.037182
v -7.063148 2.859747 1.037182
v -13.770661 3.119059 1.037182
v -13.770661 3.119059 0.037182
v -7.063148 3.119059 0.037182
v -7.063148 3.119059 1.037182
v -13.698698 3.179598 1.037182
v -13.698698 3.179598 0.037182
v -13.698698 3.119059 0.037182
v -13.698698 2.859747 0.037182
v -13.698698 2.813736 0.037182
v -13.698698 2.179598 0.037182
v -13.698698 2.179598 1.037182
v -13.698698 2.813736 1.037182
v -13.698698 2.859747 1.037182
v -13.698698 3.119059 1.037182
v -7.163181 3.119059 1.037182
v -7.163181 2.859747 1.037182
v -7.163181 2.813736 1.037182
v -7.163181 2.179598 1.037182
v -7.163181 2.179598 0.037182
v -7.163181 2.813736 0.037182
v -7.163181 2.859747 0.037182
v -7.163181 3.119059 0.037182
v -7.163181 3.179598 0.037182
v -7.163181 3.179598 1.037182
v -10.514597 0.407292 1.037182
v -13.770661 2.270678 1.037182
v -13.770661 2.270679 0.037182
v -13.770661 2.192680 1.037182
v -13.698697 2.270678 1.037182
v -7.163181 2.270679 1.037182
v -7.063148 2.270678 1.037182
v -12.142629 1.338985 1.037182
v -13.734679 2.231679 1.037182
vt 0.374994 0.000007
vt 0.625005 0.000008
vt 0.375000 0.250000
vt 0.625000 0.250000
vt 0.375000 0.500000
vt 0.625000 0.500000
vt 0.375000 0.750000
vt 0.625000 0.750000
vt 0.375000 0.999984
vt 0.625000 0.999987
vt 0.874987 0.000012
vt 0.875000 0.250000
vt 0.125011 0.000014
vt 0.125000 0.250000
vt 0.373252 -0.009731
vt 0.628353 -0.003567
vt 0.621785 0.247415
vt 0.346506 0.197665
vt 0.621171 0.504547
vt 0.354433 0.550547
vt 0.628366 0.752594
vt 0.373489 0.758812
vt 0.626486 0.999987
vt 0.374291 0.999335
vt 0.876555 -0.007250
vt 0.874504 0.252668
vt 0.124493 -0.007589
vt 0.125132 0.206688
vt 0.370566 0.002168
vt 0.628939 0.005184
vt 0.665644 0.226752
vt 0.379101 0.248874
vt 0.657884 0.508939
vt 0.380017 0.502447
vt 0.628162 0.743992
vt 0.370786 0.747940
vt 0.629559 0.997742
vt 0.375001 0.999987
vt 0.874987 0.004680
vt 0.911597 0.226245
vt 0.123904 0.000570
vt 0.125847 0.249573
vt 0.125011 0.158538
vt 0.375000 0.591467
vt 0.374994 0.158536
vt 0.625005 0.158536
vt 0.625000 0.591467
vt 0.874989 0.158538
vt 0.374995 0.170039
vt 0.125010 0.170041
vt 0.375000 0.579964
vt 0.625000 0.579964
vt 0.874990 0.170040
vt 0.625005 0.170039
vt 0.374999 0.234865
vt 0.125002 0.234866
vt 0.375000 0.515135
vt 0.625000 0.515135
vt 0.874998 0.234866
vt 0.625001 0.234865
vt 0.377682 0.250000
vt 0.377682 0.500000
vt 0.377682 0.515135
vt 0.377682 0.579964
vt 0.377682 0.591467
vt 0.377682 0.750000
vt 0.377677 0.000007
vt 0.377682 0.999984
vt 0.377677 0.158536
vt 0.377677 0.170039
vt 0.377681 0.234865
vt 0.621273 0.234865
vt 0.621276 0.170039
vt 0.621277 0.158536
vt 0.621276 0.000008
vt 0.621271 0.999987
vt 0.621271 0.750000
vt 0.621271 0.591467
vt 0.621271 0.579964
vt 0.621272 0.515135
vt 0.621272 0.500000
vt 0.621272 0.250000
vt 0.627410 0.032481
vt 0.371792 0.037602
vt 0.627410 0.032481
vt 0.371792 0.037602
vt 0.369411 0.020057
vt 0.374994 0.022777
vt 0.369411 0.020057
vt 0.374994 0.022777
vt 0.124585 0.023187
vt 0.125011 0.022783
vt 0.370752 0.728899
vt 0.375000 0.727230
vt 0.372700 -0.005452
vt 0.374994 0.003278
vt 0.372700 -0.005452
vt 0.374994 0.003278
vt 0.377677 0.022777
vt 0.621276 0.022777
vt 0.634211 0.037008
vt 0.625005 0.022777
vt 0.634211 0.037008
vt 0.625005 0.022777
vt 0.498410 0.026269
vt 0.376336 0.013027
vn 0.000000 0.000000 1.000000
vn 0.000000 0.000000 1.000000
vn 0.000000 0.000000 1.000000
vn 0.000000 0.000000 1.000000
vn 0.000000 1.000000 0.000000
vn 0.000000 1.000000 0.000000
vn 0.000000 1.000000 0.000000
vn 0.000000 1.000000 0.000000
vn 0.000000 0.000000 -1.000000
vn 0.000000 0.000000 -1.000000
vn 0.000000 0.000000 -1.000000
vn 0.000000 0.000000 -1.000000
vn 0.000000 -1.000000 0.000000
vn 0.000000 -1.000000 0.000000
vn 0.000000 -1.000000 0.000000
vn 0.000000 -1.000000 0.000000
vn 1.000000 0.000000 0.000000
vn 1.000000 0.000000 0.000000
vn 1.000000 0.000000 0.000000
vn 1.000000 0.000000 0.000000
vn -1.000000 0.000000 0.000000
vn -1.000000 0.000000 0.000000
vn -1.000000 0.000000 0.000000
vn -1.000000 0.000000 0.000000
vn 0.000000 0.000000 1.000000
vn 0.000000 0.000000 1.000000
vn 0.000000 0.000000 1.000000
vn 0.000000 0.000000 1.000000
vn 0.487074 0.873361 0.000000
vn 0.487074 0.873361 0.000000
vn 0.487074 0.873361 0.000000
vn 0.487074 0.873361 0.000000
vn 0.000000 0.000000 -1.000000
vn 0.000000 0.000000 -1.000000
vn 0.000000 0.000000 -1.000000
vn 0.000000 0.000000 -1.000000
vn 0.000000 0.000000 -1.000000
vn -0.498312 -0.866998 0.000000
vn -0.498312 -0.866998 0.000000
vn -0.498312 -0.866998 0.000000
vn -0.498312 -0.866998 0.000000
vn 0.998358 -0.057278 -0.000000
vn 0.998358 -0.057278 -0.000000
vn 0.998358 -0.057278 -0.000000
vn 0.998358 -0.057278 -0.000000
vn 0.998358 -0.057278 -0.000000
vn -1.000000 0.000000 0.000000
vn -1.000000 0.000000 0.000000
vn -1.000000 0.000000 0.000000
vn 0.000000 0.000000 1.000000
vn 0.000000 0.000000 1.000000
vn 0.000000 0.000000 1.000000
vn 0.000000 0.000000 1.000000
vn -0.472785 0.881178 0.000000
vn -0.472785 0.881178 0.000000
vn -0.472785 0.881178 0.000000
vn -0.472785 0.881178 0.000000
vn 0.000000 0.000000 -1.000000
vn 0.000000 0.000000 -1.000000
vn 0.000000 0.000000 -1.000000
vn 0.000000 0.000000 -1.000000
vn 0.475449 -0.879743 0.000000
vn 0.475449 -0.879743 0.000000
vn 0.475449 -0.879743 0.000000
vn 0.475449 -0.879743 0.000000
vn 1.000000 0.000000 0.000000
vn 1.000000 0.000000 0.000000
vn 1.000000 0.000000 0.000000
vn 1.000000 0.000000 0.000000
vn 1.000000 0.000000 0.000000
vn -0.998358 0.057278 0.000000
vn -0.998358 0.057278 0.000000
vn -0.998358 0.057278 0.000000
vn -0.998358 0.057278 0.000000
vn -0.998358 0.057278 0.000000
vn -1.000000 0.000000 0.000000
vn -1.000000 0.000000 0.000000
vn -1.000000 0.000000 0.000000
vn -1.000000 0.000000 0.000000
vn -1.000000 0.000000 0.000000
vn -1.000000 0.000000 0.000000
vn -1.000000 0.000000 0.000000
vn 0.000000 0.000000 1.000000
vn 0.000000 0.000000 1.000000
vn 0.000000 0.000000 1.000000
vn 1.000000 0.000000 0.000000
vn 1.000000 0.000000 0.000000
vn 1.000000 0.000000 0.000000
vn 1.000000 0.000000 0.000000
vn 1.000000 0.000000 0.000000
vn 0.000000 0.000000 -1.000000
vn 0.000000 0.000000 -1.000000
vn 0.000000 0.000000 -1.000000
vn -1.000000 0.000000 0.000000
vn -1.000000 0.000000 0.000000
vn 0.000000 0.000000 -1.000000
vn 0.000000 0.000000 -1.000000
vn 1.000000 0.000000 0.000000
vn 1.000000 0.000000 0.000000
vn 0.000000 0.000000 1.000000
vn 0.000000 0.000000 1.000000
vn -1.000000 0.000000 0.000000
vn -1.000000 0.000000 0.000000
vn 0.000000 0.000000 -1.000000
vn 0.000000 0.000000 -1.000000
vn 1.000000 0.000000 0.000000
vn 1.000000 0.000000 0.000000
vn 0.000000 0.000000 1.000000
vn 0.000000 0.000000 1.000000
vn 0.000000 1.000000 0.000000
vn 0.000000 1.000000 0.000000
vn 0.000000 1.000000 0.000000
vn 0.000000 1.000000 0.000000
vn 0.000000 0.000000 -1.000000
vn 0.000000 0.000000 -1.000000
vn 0.000000 0.000000 -1.000000
vn 0.000000 0.000000 -1.000000
vn 0.000000 0.000000 -1.000000
vn 0.000000 0.000000 -1.000000
vn 0.000000 0.000000 -1.000000
vn 0.000000 0.000000 -1.000000
vn 0.000000 0.000000 -1.000000
vn 0.000000 0.000000 -1.000000
vn 0.000000 -1.000000 0.000000
vn 0.000000 -1.000000 0.000000
vn 0.000000 -1.000000 0.000000
vn 0.000000 -1.000000 0.000000
vn 0.000000 0.000000 1.000000
vn 0.000000 0.000000 1.000000
vn 0.000000 0.000000 1.000000
vn 0.000000 0.000000 1.000000
vn 0.000000 0.000000 1.000000
vn 0.000000 0.000000 1.000000
vn 0.000000 0.000000 1.000000
vn 0.000000 0.000000 1.000000
vn 0.000000 0.000000 1.000000
vn 0.000000 0.000000 1.000000
vn 0.000000 0.000000 1.000000
vn 0.000000 0.000000 1.000000
vn 0.000000 0.000000 1.000000
vn 0.000000 0.000000 1.000000
vn -1.000000 0.000000 0.000000
vn -1.000000 0.000000 0.000000
vn -1.000000 0.000000 0.000000
vn -1.000000 0.000000 0.000000
vn 0.000000 0.000000 1.000000
vn 0.000000 0.000000 1.000000
vn 0.000000 0.000000 1.000000
vn 0.000000 0.000000 1.000000
vn 0.000000 0.000000 1.000000
vn 0.000000 0.000000 1.000000
vn 0.000000 0.000000 1.000000
s 1
g pCube12
usemtl lambert4SG
f 10/45/1 32/69/2 33/70/3 17/49/4
s 2
usemtl lambert5SG
f 3/3/5 25/61/6 26/62/7 5/5/8
s 3
usemtl lambert4SG
f 18/51/9 28/64/10 29/65/11 12/44/12
s 4
f 7/7/13 30/66/14 31/68/15 1/9/16
s 5
usemtl lambert5SG
f 15/46/17 16/48/18 19/53/19 20/54/20
s 6
f 12/43/21 10/45/22 17/49/23 18/50/24
s 7
usemtl lambert4SG
f 1/15/25 9/16/26 45/83/27 52/105/28
s off
usemtl lambert5SG
f 10/18/29 11/17/30 13/19/31 12/20/32
usemtl lambert4SG
f 12/20/33 13/19/34 14/21/35 7/22/36 47/93/37
usemtl lambert5SG
f 7/22/38 14/21/39 9/23/40 1/24/41
f 9/16/42 14/25/43 13/26/44 11/17/45 45/85/46
s 8
f 47/91/47 48/95/48 46/87/49
s 9
usemtl lambert4SG
f 9/29/50 2/30/51 51/101/52 45/86/53
s off
usemtl lambert5SG
f 11/32/54 15/31/55 16/33/56 13/34/57
usemtl lambert4SG
f 13/34/58 16/33/59 8/35/60 14/36/61
usemtl lambert5SG
f 14/36/62 8/35/63 2/37/64 9/38/65
f 2/30/66 8/39/67 16/40/68 15/31/69 51/103/70
f 14/41/71 9/29/72 45/84/73 11/32/74 13/42/75
f 7/13/76 1/1/77 48/96/78 46/88/79 10/45/80 12/43/81 47/92/82
s 1
usemtl lambert4SG
f 48/98/83 53/106/84 10/45/1 46/90/85
s off
usemtl lambert5SG
f 2/2/86 8/11/87 16/48/88 15/46/89 51/104/90
s 3
usemtl lambert4SG
f 12/44/12 29/65/11 30/66/91 7/7/92 47/94/93
s 6
usemtl lambert5SG
f 18/50/24 17/49/23 21/55/94 22/56/95
s 3
usemtl lambert4SG
f 22/57/96 27/63/97 28/64/10 18/51/9
s 5
usemtl lambert5SG
f 20/54/20 19/53/19 23/59/98 24/60/99
s 1
usemtl lambert4SG
f 17/49/4 33/70/3 34/71/100 21/55/101
s 6
usemtl lambert5SG
f 22/56/95 21/55/94 3/3/102 5/14/103
s 3
usemtl lambert4SG
f 5/5/104 26/62/105 27/63/97 22/57/96
s 5
usemtl lambert5SG
f 24/60/99 23/59/98 6/12/106 4/4/107
s 1
usemtl lambert4SG
f 21/55/101 34/71/100 25/61/108 3/3/109
s 2
usemtl lambert5SG
f 44/82/110 4/4/111 6/6/112 43/81/113
s 3
usemtl lambert4SG
f 42/80/114 43/81/115 6/6/116 23/58/117
f 41/79/118 42/80/114 23/58/117 19/52/119
f 40/78/120 41/79/118 19/52/119 16/47/121
f 39/77/122 40/78/120 16/47/121 8/8/123
s 4
f 38/76/124 39/77/125 8/8/126 2/10/127
s 1
f 37/74/128 50/100/129 51/102/130 15/46/131
f 36/73/132 37/74/128 15/46/131 20/54/133
f 35/72/134 36/73/132 20/54/133 24/60/135
f 44/82/136 35/72/134 24/60/135 4/4/137
f 34/71/100 33/70/3 36/73/132 35/72/134
f 33/70/3 32/69/2 37/74/128 36/73/132
f 32/69/2 49/99/138 50/100/129 37/74/128
s 4
f 31/68/15 30/66/14 39/77/125 38/76/124
s 3
f 30/66/91 29/65/11 40/78/120 39/77/122
f 29/65/11 28/64/10 41/79/118 40/78/120
f 28/64/10 27/63/97 42/80/114 41/79/118
f 27/63/97 26/62/105 43/81/115 42/80/114
s 2
usemtl lambert5SG
f 25/61/6 44/82/110 43/81/113 26/62/7
s 1
usemtl lambert4SG
f 25/61/108 34/71/100 35/72/134 44/82/136
s 7
f 46/89/139 52/105/28 45/83/27 11/17/140 10/18/141
s 8
usemtl lambert5SG
f 47/91/47 46/87/49 10/18/142 12/28/143
usemtl lambert4SG
f 7/27/144 1/15/145 48/95/48 47/91/47
s 1
f 1/1/146 31/67/147 49/99/138 53/106/84 48/98/83
f 50/100/129 49/99/138 31/67/147 38/75/148
f 51/102/130 50/100/129 38/75/148 2/2/149
s 9
f 45/86/53 51/101/52 15/31/150 11/32/151
s 7
f 1/15/25 52/105/28 46/89/139 48/97/152
s 1
f 53/106/84 49/99/138 32/69/2 10/45/1
